# xmcd
#
# Track frame offsets:
#	150
#	18987
#	37962
#	59330
#	76812
#	94000
#	113602
#	137667
#	162682
#	174267
#	194570
#	211940
#
# Disc length: 3077 seconds
#
# Revision: 1
# Processed by: cddbd v1.4PL0 Copyright (c) Steve Scherf et al.
# Submitted via: CDmax 1.9
#
DISCID=970c030c
DTITLE=James Solberg - The Hand You're Dealt
DYEAR=2000
DGENRE=Blues
TTITLE0=Build You A Castle
TTITLE1=Buzz Me
TTITLE2=The Hand You're Dealt
TTITLE3=I'm Goin' Home
TTITLE4=When's The Last Time
TTITLE5=Members Only
TTITLE6=What's Comin' Down
TTITLE7=Still Called The Blues
TTITLE8=You Got Me Knockin'
TTITLE9=Ain't It Hard
TTITLE10=Funky Woman
TTITLE11=Perfect Strangers
EXTD=
EXTT0=
EXTT1=
EXTT2=
EXTT3=
EXTT4=
EXTT5=
EXTT6=
EXTT7=
EXTT8=
EXTT9=
EXTT10=
EXTT11=
PLAYORDER=
